<svg width="118" height="110" viewBox="0 0 118 110" fill="none" xmlns="http://www.w3.org/2000/svg">
<path fill-rule="evenodd" clip-rule="evenodd" d="M71.0633 31.8143C70.0294 31.9504 69.0777 32.2491 67.426 32.3493C65.2173 32.4836 63.5198 34.1673 61.4029 34.6484C58.7452 35.2527 55.8184 34.5042 53.2296 35.3802C51.3183 36.027 49.8959 37.472 48.0767 38.2949C44.6177 39.8595 40.9056 40.2504 37.6557 42.4304C36.0079 43.5352 34.9618 45.1563 33.6049 46.5614C30.7897 49.4753 27.7554 52.3266 25.4936 55.7101C21.262 62.04 16.2453 75.8075 18.1233 83.44C19.1578 87.6485 21.6827 90.0192 23.8723 93.5465C25.697 96.4871 23.1436 100.695 26.4237 102.854C30.2573 105.376 32.6527 101.28 36.5153 101.655C41.8061 102.168 46.0449 102.802 51.3764 101.34C68.6355 96.6021 81.5402 76.2627 80.3572 58.865C80.1223 55.4101 80.1033 51.7625 78.7332 48.5212C77.8237 46.37 75.6844 44.5073 75.6272 42.1692C75.429 34.0579 75.6591 31.2098 71.0633 31.8143Z" fill="#FFD82F"/>
<path fill-rule="evenodd" clip-rule="evenodd" d="M93.541 29.3675C85.394 27.0877 77.0732 34.5705 80.2009 43.0051C81.708 47.0688 86.2243 48.3644 89.3352 50.887C91.9857 53.0362 91.9062 54.6255 93.3841 57.4155C94.0283 58.6317 94.9611 59.5815 95.4031 60.9195C96.232 63.4298 95.7534 66.6631 93.7551 68.4913C92.859 69.3113 88.293 71.0703 90.0407 71.5238C95.7941 73.0166 101.508 67.1216 103.912 62.7279C105.089 60.5779 105.721 58.3923 106.005 55.9637C106.984 47.5798 103.921 31.2129 93.541 29.3675Z" fill="#909E00"/>
<path fill-rule="evenodd" clip-rule="evenodd" d="M68.3445 20.5839C72.2693 25.8866 70.3841 35.2122 63.7844 37.2008C60.5379 38.1788 57.366 36.6615 54.0953 36.8856C51.2112 37.0828 49.8561 40.2185 46.9359 40.4738C43.2998 40.7923 40.173 38.1904 36.6199 37.9591C33.1348 37.7324 30.2445 39.9436 27.1362 41.1855C27.0158 41.2336 27.1517 40.9243 27.167 40.7946C27.2355 40.234 27.3762 39.6903 27.4891 39.1386C27.7807 37.7 28.0819 36.263 28.3713 34.8232C29.2525 30.4254 30.7168 26.161 33.725 22.7299C39.6291 15.9981 49.7668 13.3413 58.4348 14.9915C62.1179 15.6932 66.4208 17.1584 68.3445 20.5839Z" fill="#909E00"/>
<path fill-rule="evenodd" clip-rule="evenodd" d="M89.6218 11.8515C86.8679 11.4229 84.3168 13.9643 82.5716 15.7518C78.4549 19.9684 76.5358 25.4158 73.4977 30.3143C72.6775 31.637 70.7972 32.1682 70.1152 33.3859C69.5086 34.4691 71.0709 35.4144 71.8892 35.5886C73.9566 36.0287 75.3088 34.024 76.0376 32.3808C77.7029 28.6261 78.1792 24.1337 80.6551 20.7844C82.8901 17.7612 86.4183 17.1815 89.0619 14.8118C89.8722 14.0852 91.5277 12.3562 89.6218 11.8515Z" fill="#909E00"/>
<path fill-rule="evenodd" clip-rule="evenodd" d="M78.4939 22.5829C76.6815 22.9049 75.1585 23.8556 73.2642 23.8741C72.1276 23.8852 70.9859 23.7983 69.8541 23.7006C68.8265 23.6118 66.8859 23.0352 65.9149 23.5478C65.5777 23.7257 65.9458 24.2906 66.0858 24.4587C66.6674 25.1563 67.5419 25.4207 68.3976 25.5929C70.5884 26.0334 73.1274 25.7969 75.3121 25.3714C76.3139 25.1763 78.3147 24.8988 78.3517 23.4918" fill="#909E00"/>
<path fill-rule="evenodd" clip-rule="evenodd" d="M82.7336 18.1124C78.3611 20.3431 81.2986 26.8619 83.5335 29.6806C84.2589 30.5953 85.3618 31.7355 86.5748 31.9578C86.794 31.998 86.4564 30.7091 86.43 30.6425C85.936 29.3988 84.932 28.2836 84.2757 27.1143C82.4755 23.9077 81.2617 19.9126 83.962 16.8543" fill="#909E00"/>
<path fill-rule="evenodd" clip-rule="evenodd" d="M69.7412 23.7723C69.7289 23.7015 69.7423 23.6512 69.7104 23.5761C69.6791 23.5026 69.6113 23.4433 69.5562 23.3707C68.9474 22.5688 67.9758 21.2482 66.9906 20.4043C66.3857 19.8862 65.7643 19.5559 65.2076 19.5828C64.158 19.6348 63.2512 20.2962 62.2626 20.5692C61.8838 20.6738 61.4917 20.7159 61.0694 20.6218C59.6851 20.3161 58.3612 19.3312 56.9881 18.7463C56.3429 18.4722 55.6886 18.2827 55.0157 18.2713C54.6141 18.2643 54.2439 18.3658 53.894 18.5374C53.2851 18.836 52.7386 19.3553 52.1818 19.8494C51.668 20.3062 51.1442 20.7442 50.5315 20.9098C48.9107 21.3478 47.2934 20.759 45.6602 20.7477C44.9355 20.7424 44.2075 20.8441 43.4765 21.1697C42.8173 21.4631 42.3618 21.8799 42.0074 22.361C41.5903 22.9277 41.3194 23.586 41.015 24.2301C40.737 24.8146 40.43 25.3878 39.9272 25.8504C39.464 26.2761 38.8741 26.4188 38.2649 26.5312C37.5981 26.6542 36.9059 26.7395 36.2859 27.0212C35.9665 27.1664 35.6646 27.3627 35.3929 27.6376C35.0959 27.9385 34.8683 28.2635 34.6773 28.6014C34.2464 29.3602 34.0116 30.1881 33.5093 30.9379C33.3216 31.2164 33.0566 31.384 32.7806 31.5404C32.4503 31.7274 32.1051 31.8971 31.8125 32.1472C31.6595 32.2791 31.5177 32.4335 31.3998 32.6209C31.2466 32.8634 31.1311 33.1215 31.0343 33.3873C30.8275 33.9534 30.7093 34.5583 30.4483 35.1027C30.355 35.2939 30.2407 35.455 30.115 35.6037C29.765 36.0185 29.3452 36.3444 29.053 36.8235C28.5752 37.6085 28.4022 38.3852 28.0294 39.1406C27.9435 39.3164 27.84 39.4881 27.7259 39.6657C27.6571 39.7755 27.5883 39.8906 27.5043 40.0032C27.4167 40.1054 27.428 40.2604 27.53 40.3487C27.6336 40.4365 27.7879 40.4251 27.8755 40.3229C28.0156 40.1796 28.1414 40.0365 28.2467 39.8858C28.3594 39.7253 28.4478 39.5567 28.53 39.391C28.9011 38.652 29.0677 37.8882 29.5387 37.1201C29.8165 36.6676 30.2212 36.3659 30.5522 35.9747C30.709 35.7905 30.851 35.5892 30.9649 35.3528C31.2363 34.7912 31.3614 34.1696 31.5766 33.5857C31.6594 33.3583 31.7585 33.1367 31.8894 32.9293C32.0705 32.6419 32.3269 32.4648 32.5954 32.3079C32.9225 32.1166 33.2667 31.9546 33.5594 31.7206C33.7206 31.5916 33.8659 31.4422 33.9888 31.2588C34.4972 30.495 34.7382 29.6537 35.1718 28.8815C35.339 28.585 35.5368 28.2991 35.7958 28.0348C36.0165 27.8109 36.261 27.6519 36.5193 27.5334C37.0982 27.2683 37.7459 27.1951 38.3664 27.0789C39.0798 26.9449 39.76 26.7555 40.3005 26.2555C40.856 25.7416 41.2011 25.1112 41.5077 24.463C41.7956 23.8494 42.0473 23.2194 42.4428 22.6791C42.7435 22.2674 43.1307 21.9092 43.6941 21.6565C44.351 21.3617 45.0056 21.2716 45.6575 21.2741C47.3356 21.2801 49.0009 21.8567 50.6657 21.4001C51.2711 21.2341 51.8038 20.8434 52.3163 20.3988C52.776 19.9998 53.2178 19.5588 53.6924 19.2301C54.0958 18.9512 54.5213 18.7533 55.0089 18.7594C55.6211 18.7668 56.2146 18.9415 56.8018 19.1878C58.2019 19.7778 59.5606 20.7648 60.9718 21.0701C61.4723 21.1777 61.9365 21.1291 62.3839 21.0013C63.3419 20.7281 64.2115 20.0627 65.2302 20.0032C65.7008 19.9753 66.2147 20.279 66.7314 20.7107C67.7073 21.5261 68.6574 22.8231 69.2838 23.5859C69.343 23.6577 69.3869 23.7389 69.4539 23.7852C69.5225 23.8326 69.575 23.8309 69.6443 23.8549C69.6671 23.8817 69.7072 23.8849 69.734 23.8622C69.7608 23.8394 69.764 23.7991 69.7412 23.7723Z" fill="#373B00"/>
<path fill-rule="evenodd" clip-rule="evenodd" d="M69.2518 23.6809C69.1979 23.6776 69.1913 23.656 69.141 23.6731C69.1349 23.6752 69.1315 23.6815 69.1268 23.6858C69.0699 23.7359 69.014 23.784 68.9587 23.8309C67.9576 24.6784 67.2001 24.9892 66.5013 25.0222C65.8892 25.0509 65.3249 24.8688 64.6891 24.6588C63.8994 24.3977 63.0069 24.0946 61.8128 24.0531C61.48 24.0421 61.1682 24.1037 60.8687 24.2119C60.3193 24.4103 59.8122 24.7704 59.2956 25.108C58.8204 25.4187 58.3372 25.7117 57.7925 25.8022C57.0881 25.9202 56.3921 25.8197 55.6967 25.6943C54.9609 25.5615 54.2248 25.4009 53.4834 25.405C53.1012 25.4074 52.719 25.4524 52.3326 25.5644C51.9577 25.673 51.6247 25.8627 51.318 26.1033C50.7758 26.5292 50.3199 27.1195 49.8342 27.6747C49.3863 28.1878 48.9141 28.6718 48.3041 28.9246C48.0676 29.0226 47.8229 29.0804 47.5753 29.1138C46.4874 29.2625 45.3134 28.9991 44.2466 29.3314C43.7687 29.4809 43.3697 29.7463 43.011 30.0666C42.2605 30.7372 41.7035 31.6754 40.8151 32.1359C40.4068 32.3475 39.9541 32.3805 39.4936 32.3909C38.9813 32.4022 38.4589 32.3839 37.9622 32.4833C37.6928 32.5373 37.4311 32.6246 37.1816 32.7637C36.8837 32.9295 36.633 33.1497 36.4025 33.3976C35.9326 33.9041 35.5646 34.5357 35.0154 34.9518C34.9168 35.0269 34.8129 35.0917 34.7069 35.15C34.2158 35.4196 33.6762 35.5675 33.208 35.8834C33.056 35.9864 32.922 36.1053 32.7988 36.2349C32.3742 36.6844 32.118 37.2799 31.6206 37.6631C31.4682 37.7809 31.3019 37.8631 31.1319 37.9293C30.657 38.1143 30.144 38.1922 29.6828 38.4333C29.4783 38.5406 29.2881 38.6742 29.106 38.8208C28.8376 39.0368 28.5782 39.2737 28.3124 39.4969C28.2062 39.5866 28.1029 39.6795 27.9893 39.7582C27.8681 39.8301 27.8292 39.9854 27.9005 40.1054C27.9718 40.2252 28.1272 40.2645 28.2485 40.1925C28.385 40.1233 28.517 40.0461 28.6413 39.9567C29.0912 39.6346 29.4684 39.1996 29.9526 38.952C30.3964 38.7231 30.8906 38.6587 31.3468 38.4822C31.5693 38.3961 31.7837 38.286 31.983 38.1316C32.5043 37.7286 32.7821 37.1119 33.2275 36.6392C33.3199 36.5407 33.4219 36.4492 33.5389 36.3702C33.989 36.0648 34.5134 35.9251 34.9891 35.6631C35.1193 35.5911 35.2467 35.5108 35.3697 35.4176C35.9441 34.9805 36.3381 34.3245 36.8299 33.7925C37.018 33.5892 37.2217 33.4054 37.4633 33.2697C37.8697 33.042 38.3154 32.9936 38.7667 32.9773C39.28 32.9584 39.7987 32.9818 40.2897 32.8973C40.5616 32.8506 40.8261 32.7717 41.0766 32.6408C42.0069 32.1555 42.6023 31.1874 43.3847 30.4838C43.6837 30.2151 44.0131 29.9884 44.4143 29.8618C45.4502 29.5337 46.5925 29.7992 47.6494 29.6494C47.9429 29.6081 48.2316 29.5368 48.5101 29.4197C49.1946 29.1319 49.7307 28.5979 50.23 28.0193C50.6911 27.4866 51.1214 26.9164 51.6366 26.5063C51.8901 26.3049 52.1641 26.1427 52.476 26.0498C52.9905 25.8968 53.5013 25.8811 54.0104 25.9239C55.2971 26.0322 56.5749 26.4899 57.8718 26.2632C58.8949 26.0827 59.7235 25.2663 60.64 24.788C61.0036 24.5982 61.3814 24.4664 61.8002 24.4763C62.9477 24.503 63.8074 24.7881 64.5689 25.0299C65.2544 25.2478 65.8649 25.432 66.522 25.3889C67.276 25.3393 68.0951 24.9969 69.1522 24.0536C69.2078 24.0041 69.264 23.9528 69.3208 23.8999C69.3255 23.8954 69.3323 23.8926 69.335 23.8866C69.357 23.8378 69.337 23.829 69.3381 23.7746C69.364 23.7509 69.3656 23.7106 69.3419 23.6847C69.318 23.6588 69.2776 23.657 69.2518 23.6809Z" fill="#373B00"/>
<path fill-rule="evenodd" clip-rule="evenodd" d="M69.085 24.4047C69.0147 24.4216 69.0161 24.3956 68.9556 24.4366C68.9455 24.4435 68.9411 24.4554 68.935 24.4661C68.8904 24.5438 68.861 24.631 68.8242 24.7158C68.4003 25.6923 67.9818 26.8595 67.3663 27.8326C66.9182 28.5409 66.3655 29.1462 65.613 29.4769C64.6666 29.8947 63.587 29.8031 62.6012 30.0774C62.3333 30.1518 62.0739 30.2511 61.8237 30.388C60.9729 30.8533 60.4419 31.7727 59.7256 32.4168C59.4543 32.661 59.1537 32.8612 58.7825 32.9596C58.2498 33.1016 57.7173 33.0481 57.1832 32.9634C56.5992 32.8698 56.0147 32.7373 55.4338 32.7268C55.1209 32.7215 54.8089 32.7506 54.4993 32.8345C53.2661 33.1694 52.3204 34.16 51.181 34.7445C50.9223 34.8774 50.6521 34.9873 50.3633 35.0583C49.945 35.1611 49.5456 35.0706 49.151 34.9518C48.6842 34.8114 48.225 34.6298 47.7603 34.5799C47.497 34.5514 47.2329 34.5627 46.9636 34.6382C46.1722 34.8602 45.4998 35.4272 44.7514 35.7808C44.4677 35.9146 44.1743 36.0141 43.8514 36.0379C43.6215 36.0545 43.3979 36.0424 43.1774 36.0126C42.1946 35.8778 41.2819 35.42 40.2645 35.4161C39.9602 35.415 39.6874 35.4961 39.4306 35.6188C38.943 35.8512 38.5248 36.2665 37.9832 36.3766C37.0949 36.5569 36.2299 36.5095 35.3754 36.5352C34.9819 36.5468 34.5903 36.5746 34.2003 36.6388C33.8136 36.7023 33.4215 36.792 33.041 36.9635C32.8866 37.0331 32.736 37.1193 32.5849 37.2144C32.468 37.2779 32.4245 37.425 32.4878 37.5427C32.5513 37.6605 32.6991 37.704 32.816 37.6405C32.9607 37.5741 33.1055 37.5238 33.2479 37.472C33.5984 37.3444 33.9411 37.2519 34.2887 37.2006C34.6553 37.1468 35.0221 37.1307 35.3916 37.1226C36.2789 37.1034 37.1778 37.1396 38.1014 36.9519C38.6885 36.8326 39.1534 36.4014 39.6826 36.1489C39.8622 36.0632 40.0502 36.0026 40.2625 36.0031C41.253 36.0069 42.1398 36.4627 43.0995 36.5932C43.3581 36.6289 43.6217 36.6427 43.8937 36.6227C44.2902 36.5936 44.6545 36.4748 45.0016 36.3106C45.7206 35.9708 46.3609 35.4155 47.121 35.2019C47.5297 35.0868 47.9243 35.179 48.3212 35.2993C48.7801 35.4377 49.2386 35.6171 49.7127 35.6682C49.9706 35.6966 50.2339 35.6882 50.5026 35.6217C50.8345 35.5399 51.1475 35.4132 51.4459 35.2594C52.5495 34.6911 53.4562 33.7131 54.6492 33.3868C55.1773 33.242 55.7093 33.294 56.2431 33.3777C56.8262 33.4689 57.4116 33.5987 57.9936 33.607C58.3059 33.6107 58.6161 33.5814 58.9257 33.4974C59.3849 33.3723 59.7605 33.1281 60.094 32.8235C60.7777 32.2 61.265 31.2999 62.0783 30.846C62.2914 30.727 62.5139 30.641 62.7415 30.5751C63.7451 30.2841 64.8468 30.3508 65.8082 29.911C66.6382 29.5299 67.2521 28.8576 67.7351 28.061C68.3435 27.0577 68.7461 25.8597 69.1549 24.855C69.189 24.7711 69.231 24.6914 69.2575 24.6075C69.261 24.5961 69.2664 24.5851 69.2648 24.5733C69.2545 24.5012 69.2353 24.5203 69.2013 24.4569C69.2157 24.4248 69.2013 24.3871 69.1693 24.3728C69.1372 24.3583 69.0995 24.3726 69.085 24.4047Z" fill="#373B00"/>
<path fill-rule="evenodd" clip-rule="evenodd" d="M85.3978 31.2943C84.8631 31.8711 84.438 32.5333 84.165 33.2619C83.8906 33.9941 83.7759 34.7843 83.7694 35.5702C83.7563 37.1494 84.2484 38.7336 85.2049 39.98C85.7566 40.6977 86.371 41.1692 87.0055 41.5023C87.8579 41.9497 88.7469 42.1432 89.5684 42.3519C90.4292 42.5707 91.2143 42.7981 91.768 43.4311C92.0972 43.8077 92.3053 44.2537 92.4623 44.7294C92.8511 45.9074 92.9457 47.2581 93.5711 48.3093C94.3136 49.557 95.4586 50.454 96.3597 51.5561C96.7222 51.9992 97.0432 52.4772 97.2742 53.0317C97.4484 53.4498 97.5441 53.8714 97.5984 54.2957C97.7339 55.3542 97.6198 56.4294 97.7493 57.5123C97.869 58.5106 98.3776 59.256 98.6462 60.158C98.744 60.4864 98.8064 60.8379 98.7954 61.2363C98.7797 61.7988 98.6836 62.2309 98.5403 62.6172C98.2924 63.2854 97.9115 63.8237 97.561 64.6272C96.7546 66.4757 95.9871 67.7989 94.9281 68.763C93.9512 69.6525 92.7125 70.1819 90.9912 70.6442C90.8957 70.6698 90.7987 70.6934 90.7034 70.7283C90.6383 70.7522 90.5812 70.7842 90.5168 70.8127C90.4074 70.8352 90.3369 70.942 90.3593 71.0513C90.3815 71.1607 90.4884 71.2313 90.5977 71.2089C90.6698 71.21 90.7366 71.2155 90.8072 71.2104C90.9114 71.2029 91.0122 71.1818 91.1117 71.162C92.9709 70.7942 94.2655 70.1233 95.3073 69.1807C96.4201 68.1734 97.2299 66.7884 98.073 64.8503C98.4274 64.0353 98.8109 63.4881 99.0616 62.8103C99.223 62.374 99.3325 61.8865 99.3495 61.2513C99.3618 60.7888 99.2899 60.3809 99.1761 59.9999C98.9155 59.1283 98.4121 58.4116 98.2955 57.4467C98.1643 56.3626 98.277 55.2859 98.1398 54.2261C98.0789 53.7546 97.9701 53.2865 97.7759 52.8222C97.523 52.2179 97.1739 51.6961 96.7782 51.2136C95.8918 50.133 94.7605 49.2595 94.0294 48.0359C93.4212 47.0184 93.3412 45.7049 92.9617 44.5638C92.7813 44.0214 92.5377 43.5156 92.1609 43.0868C91.6495 42.5049 90.9749 42.2092 90.215 41.9901C89.2929 41.7244 88.2401 41.5726 87.2395 41.0539C86.6609 40.7538 86.0996 40.3288 85.5935 39.6793C84.6904 38.5226 84.2318 37.0455 84.2219 35.5706C84.217 34.8306 84.3394 34.0959 84.5481 33.3901C84.7596 32.6746 85.054 31.9863 85.4963 31.375C85.5185 31.3479 85.5146 31.3077 85.4874 31.2854C85.4602 31.263 85.42 31.2672 85.3978 31.2943Z" fill="#373B00"/>
<path fill-rule="evenodd" clip-rule="evenodd" d="M85.2433 31.2805C85.217 31.3308 85.1973 31.3195 85.195 31.3755C85.1909 31.4679 85.2645 31.545 85.3021 31.6261C85.823 32.7519 86.5241 33.4589 87.29 33.9455C88.4368 34.674 89.7626 34.8874 91.0189 35.1941C92.239 35.4918 93.3941 35.8768 94.2209 36.991C94.9393 37.9583 95.2647 39.144 95.8631 40.1735C96.0198 40.443 96.1945 40.7022 96.3973 40.9454C97.0414 41.7171 97.9264 42.2915 98.6025 43.0379C98.8737 43.3373 99.1096 43.6659 99.2761 44.0519C99.4382 44.4281 99.522 44.8163 99.5715 45.2097C99.6959 46.1961 99.6163 47.2146 99.8975 48.1801C100.239 49.3518 100.827 50.3088 101.24 51.404C101.403 51.835 101.538 52.2884 101.615 52.7878C101.681 53.2104 101.658 53.6156 101.593 54.0127C101.429 55.0274 101.012 55.9941 100.988 57.0455C100.964 58.1426 101.28 59.1883 101.371 60.2602C101.407 60.6871 101.406 61.1182 101.324 61.5596C101.285 61.7727 101.214 61.9751 101.126 62.1725C100.903 62.6772 100.584 63.1495 100.376 63.6561C100.192 64.1051 100.127 64.6242 99.9811 65.0996C99.9256 65.2802 99.8573 65.4541 99.7597 65.6119C98.7896 67.1825 97.3881 68.4029 95.7883 69.2875C95.3077 69.5534 94.8085 69.7869 94.2991 69.9952C93.0976 70.487 91.8336 70.8253 90.5758 70.988C90.4524 71.0022 90.3639 71.1138 90.3781 71.237C90.3923 71.3602 90.5038 71.4488 90.6271 71.4346C91.9328 71.3036 93.2563 71.0057 94.5078 70.5172C95.0423 70.3088 95.5619 70.0624 96.0634 69.7859C97.7492 68.8564 99.2178 67.5614 100.237 65.9061C100.359 65.7074 100.446 65.49 100.515 65.2629C100.655 64.803 100.713 64.3003 100.89 63.8656C101.094 63.3631 101.41 62.8945 101.629 62.3938C101.733 62.1572 101.817 61.9137 101.863 61.6582C101.952 61.1673 101.954 60.6877 101.912 60.2134C101.82 59.1605 101.501 58.1345 101.521 57.0565C101.541 56.0301 101.952 55.0865 102.109 54.0955C102.181 53.6452 102.203 53.1859 102.127 52.7074C102.041 52.1711 101.896 51.6844 101.719 51.2219C101.306 50.1402 100.717 49.1977 100.374 48.0403C100.095 47.1013 100.176 46.1081 100.05 45.1482C99.9925 44.7107 99.8945 44.2799 99.7117 43.8625C99.5216 43.4288 99.2553 43.0589 98.9474 42.7234C98.2704 41.9852 97.3856 41.4209 96.7402 40.6573C96.552 40.4348 96.3901 40.1971 96.2443 39.95C95.6311 38.9119 95.2878 37.7165 94.5531 36.7425C93.6552 35.5528 92.4216 35.1298 91.1081 34.8216C89.8859 34.5348 88.595 34.3473 87.474 33.6524C86.7485 33.2026 86.1079 32.5319 85.5792 31.4917C85.5404 31.4151 85.5302 31.3145 85.4619 31.2576C85.4193 31.2221 85.414 31.2453 85.3601 31.2302C85.3463 31.1978 85.3087 31.1829 85.2765 31.1967C85.2442 31.2108 85.2292 31.2482 85.2433 31.2805Z" fill="#373B00"/>
<path fill-rule="evenodd" clip-rule="evenodd" d="M85.2069 31.157C85.268 31.1976 85.3049 31.2394 85.3723 31.2695C85.409 31.286 85.4499 31.2901 85.4895 31.2986C85.8815 31.3841 86.2839 31.4579 86.6854 31.5285C87.202 31.6193 87.721 31.683 88.2352 31.6616C88.8517 31.6347 89.4036 31.4088 89.9945 31.3467C90.2181 31.323 90.4479 31.3253 90.6905 31.3774C91.0463 31.4536 91.3697 31.5834 91.6769 31.7409C92.4362 32.1303 93.0999 32.6872 93.8793 33.0932C94.6635 33.5013 95.5621 33.6135 96.3825 33.9208C96.574 33.9926 96.7611 34.0758 96.9404 34.178C97.3261 34.397 98.154 35.2762 99.0293 36.2828C100.213 37.6437 101.472 39.2439 101.817 39.8502C102.451 40.9604 102.79 42.3746 102.98 43.8614C103.264 46.087 103.213 48.4745 103.268 50.2845C103.315 51.7693 103.796 53.2839 104.009 54.7916C104.097 55.4194 104.139 56.046 104.074 56.6687C103.691 60.3902 102.257 63.8659 99.9571 66.4827C98.5355 68.1 96.7835 69.389 94.7357 70.2025C93.5706 70.6652 92.3116 70.9778 90.963 71.1064C90.8913 71.1133 90.819 71.1165 90.7472 71.1254C90.6749 71.1344 90.6043 71.149 90.5319 71.1599C90.4425 71.1651 90.374 71.2418 90.3792 71.3312C90.3842 71.4207 90.4611 71.4892 90.5506 71.4841C90.6254 71.4868 90.699 71.4918 90.7733 71.4903C90.8476 71.4887 90.9214 71.4804 90.995 71.4746C92.3853 71.3656 93.6883 71.0694 94.8942 70.6091C97.0236 69.7963 98.8527 68.4796 100.333 66.8154C102.717 64.1359 104.194 60.5531 104.596 56.723C104.666 56.058 104.625 55.3886 104.531 54.718C104.322 53.2291 103.843 51.7342 103.799 50.2683C103.743 48.4438 103.795 46.0372 103.507 43.7939C103.307 42.234 102.94 40.753 102.274 39.5891C101.918 38.9702 100.63 37.3332 99.4122 35.948C98.4823 34.8904 97.5879 33.9824 97.1789 33.7541C96.9758 33.6413 96.7648 33.5492 96.5484 33.4706C95.7415 33.1781 94.8578 33.0837 94.0852 32.6923C93.3007 32.2955 92.6305 31.7454 91.8659 31.3661C91.525 31.1969 91.1657 31.0605 90.7722 30.9821C90.485 30.925 90.214 30.9252 89.9507 30.9567C89.3675 31.0267 88.8255 31.2603 88.2166 31.2959C87.3298 31.3494 86.4272 31.1053 85.5438 30.9883C85.5029 30.9829 85.4623 30.9728 85.4212 30.9765C85.3469 30.9831 85.2975 31.0103 85.2263 31.031C85.1916 31.0256 85.1591 31.0496 85.1536 31.0843C85.1483 31.119 85.1721 31.1516 85.2069 31.157Z" fill="#373B00"/>
<path fill-rule="evenodd" clip-rule="evenodd" d="M84.7744 31.3492C84.6244 31.4967 84.4651 31.6193 84.3204 31.7692C84.2852 31.8058 84.2558 31.8475 84.2233 31.8862C83.5562 32.6829 82.8171 33.3955 82.1873 34.2048C81.8455 34.6441 81.5364 35.1121 81.2855 35.6344C81.0771 36.069 80.8997 36.5255 80.7582 36.9929C80.6164 37.461 80.5109 37.94 80.4449 38.4187C80.197 40.2606 80.7355 41.9125 81.7474 43.2543C82.7461 44.579 84.2084 45.5995 85.8245 46.2008C86.654 46.509 87.5756 46.678 88.4233 46.9916C88.7711 47.1202 89.1063 47.2741 89.4152 47.4757C89.7422 47.6889 90.4531 48.4134 91.2105 49.2386C92.2276 50.3474 93.322 51.6408 93.6791 52.1732C94.4755 53.3602 95.3466 55.2014 96.015 57.1026C96.6848 59.0074 97.153 60.973 97.1207 62.4002C97.0936 63.7259 96.5026 64.9672 96.2396 66.2686C96.1777 66.5763 96.0888 66.8881 96.1174 67.2023C96.1208 67.2405 96.1332 67.2721 96.1429 67.3092C96.137 67.4319 96.2318 67.5364 96.3546 67.5425C96.4773 67.5485 96.5817 67.4536 96.5877 67.3309C96.6002 67.2914 96.6181 67.258 96.6265 67.2176C96.6984 66.8746 96.7227 66.5265 96.804 66.1872C97.024 65.2701 97.3657 64.3752 97.5465 63.4577C97.6145 63.1134 97.6595 62.7658 97.6681 62.4125C97.7012 60.9334 97.2263 58.8942 96.5303 56.9211C95.8432 54.9729 94.9426 53.0894 94.1241 51.8741C93.7585 51.3312 92.641 50.0105 91.5997 48.8807C90.8014 48.0141 90.0446 47.2611 89.7002 47.0377C89.358 46.8157 88.9878 46.6453 88.6029 46.504C87.7544 46.1928 86.8327 46.0261 86.0023 45.7201C84.4749 45.1579 83.0907 44.2011 82.1418 42.9553C81.1977 41.7155 80.686 40.1886 80.9054 38.4793C80.9625 38.0232 81.0579 37.5668 81.1872 37.1201C81.3168 36.6723 81.4799 36.2346 81.6733 35.8173C81.9039 35.3188 82.1917 34.8721 82.5085 34.4503C83.1213 33.6345 83.843 32.9116 84.4904 32.1053C84.5229 32.065 84.5586 32.0266 84.5872 31.9832C84.7045 31.806 84.7849 31.6168 84.8779 31.4231C84.8984 31.3946 84.8919 31.3547 84.8632 31.3343C84.8347 31.3139 84.7948 31.3205 84.7744 31.3492Z" fill="#373B00"/>
<path fill-rule="evenodd" clip-rule="evenodd" d="M69.2712 23.7409C69.1925 23.9025 69.1091 24.0478 69.0597 24.2187C69.028 24.328 69.0223 24.4432 69.0067 24.5556C68.8515 25.6663 68.8765 26.7829 68.7021 27.8827C68.6135 28.4418 68.4725 28.9966 68.2239 29.5437C68.0956 29.8259 67.9138 30.0632 67.7104 30.2823C67.1866 30.847 66.5259 31.2997 66.1139 31.9692C65.5061 32.9579 65.0645 33.823 64.3467 34.4521C63.9075 34.8373 63.3613 35.1298 62.6028 35.3057C61.3813 35.5904 60.131 35.5364 58.8749 35.4282C57.5893 35.3178 56.2969 35.1504 55.0169 35.1993C54.3617 35.2239 53.7096 35.3056 53.0632 35.478C51.1523 35.9883 49.4675 37.3759 47.6326 38.1577C46.8724 38.4819 46.0845 38.6985 45.238 38.6841C43.8831 38.6609 42.6704 38.1617 41.4641 37.6602C40.6183 37.3094 39.7767 36.955 38.8978 36.7395C38.5055 36.6437 38.1064 36.5595 37.6957 36.5468C37.5213 36.5417 37.3479 36.5554 37.1719 36.5719C37.0659 36.5723 36.9787 36.6595 36.9805 36.7655C36.9807 36.8719 37.0675 36.9579 37.1734 36.9575C37.349 36.9714 37.5192 37.0012 37.6905 37.0237C38.3895 37.1174 39.0594 37.284 39.7124 37.5227C40.9783 37.9827 42.1963 38.619 43.5036 38.9679C44.0593 39.1159 44.6313 39.2116 45.2287 39.223C46.152 39.2412 47.0147 39.0119 47.8463 38.6593C49.6587 37.8909 51.3183 36.514 53.2054 36.0129C53.8123 35.8514 54.4236 35.7768 55.038 35.7536C56.295 35.7059 57.5656 35.8726 58.828 35.9779C60.142 36.0873 61.4477 36.1298 62.7255 35.8256C63.5837 35.6203 64.1972 35.2822 64.6914 34.8418C65.4396 34.1753 65.9048 33.2686 66.5335 32.2242C66.9216 31.5782 67.5592 31.1454 68.0547 30.5978C68.2882 30.3397 68.493 30.0586 68.6375 29.7281C68.8948 29.1396 69.0393 28.545 69.1243 27.9461C69.281 26.8398 69.2344 25.7198 69.3683 24.6024C69.3815 24.494 69.4078 24.3867 69.4128 24.2771C69.4208 24.1043 69.395 23.9443 69.3953 23.7696C69.4033 23.7354 69.3819 23.7011 69.3476 23.6932C69.3134 23.6852 69.2791 23.7066 69.2712 23.7409Z" fill="#373B00"/>
<path fill-rule="evenodd" clip-rule="evenodd" d="M69.2527 23.588C69.2489 23.4699 69.2509 23.3582 69.2279 23.2407C69.2134 23.1663 69.1849 23.0951 69.1591 23.0229C68.6431 21.5716 67.41 20.2135 65.9582 19.1526C64.3245 17.959 62.3879 17.1546 60.781 17.0405C59.4648 16.9477 58.2153 17.3988 56.9221 17.4723C56.6168 17.4895 56.3095 17.4848 55.9971 17.444C54.5363 17.2522 53.1229 16.898 51.6764 16.7481C51.0483 16.6835 50.4151 16.6566 49.7669 16.6966C49.0129 16.7427 48.3475 16.8963 47.709 17.1025C46.7577 17.4097 45.8702 17.8356 44.8336 18.183C43.8263 18.5212 42.7622 18.708 41.7386 19.0086C41.2872 19.1411 40.8434 19.2955 40.414 19.4928C39.2599 20.0233 37.4841 21.3388 35.8385 22.794C34.1777 24.2626 32.6497 25.8735 32.0099 26.9439C31.209 28.2861 30.3777 29.825 29.761 31.4077C29.3423 32.4831 29.0225 33.5795 28.8723 34.6459C28.7668 35.4308 28.9003 36.226 28.8655 37.0126C28.8581 37.1971 28.8381 37.3818 28.805 37.5648C28.7825 37.6838 28.8595 37.7994 28.9788 37.8224C29.0981 37.8453 29.2137 37.7672 29.2362 37.6483C29.2769 37.4452 29.2993 37.2412 29.3124 37.0363C29.3598 36.2657 29.2452 35.4839 29.3641 34.7171C29.5163 33.6885 29.8359 32.6337 30.2443 31.597C30.8567 30.0438 31.6717 28.5312 32.461 27.2127C33.0821 26.172 34.5722 24.6139 36.183 23.1832C37.7827 21.7623 39.5005 20.4669 40.6221 19.9462C41.0291 19.7573 41.45 19.6096 41.8796 19.4818C42.9068 19.1759 43.9762 18.9832 44.9886 18.6391C46.0203 18.288 46.9049 17.8586 47.8529 17.5472C48.4548 17.3497 49.0837 17.1998 49.796 17.1527C50.4186 17.1111 51.0272 17.1345 51.63 17.1938C53.0739 17.3359 54.4847 17.6824 55.9426 17.8661C56.2825 17.9083 56.6167 17.9125 56.9478 17.8919C58.2227 17.8122 59.4542 17.3504 60.7546 17.4329C62.3032 17.5303 64.1694 18.3007 65.754 19.4349C67.1633 20.4438 68.3314 21.7493 68.8868 23.1262C68.914 23.1934 68.9357 23.2625 68.9666 23.3272C69.0163 23.431 69.0781 23.5182 69.1293 23.6195C69.138 23.6536 69.1727 23.6742 69.2068 23.6655C69.2409 23.6568 69.2614 23.6221 69.2527 23.588Z" fill="#373B00"/>
</svg>
