<svg width="127" height="137" viewBox="0 0 127 137" fill="none" xmlns="http://www.w3.org/2000/svg">
<path d="M77.1138 11.6846C59.3654 9.32353 57.3073 29.9031 46.122 41.2275C31.1845 53.0581 23.4766 53.1496 15.8718 77.0467C5.47465 109.718 56.9394 142.355 82.7579 109.455C99.7213 87.8389 85.3482 64.0893 82.799 55.6711C79.2344 43.8999 94.8622 14.0456 77.1138 11.6846Z" fill="#EE6B4E"/>
<path d="M74.0664 20.2787C60.3729 18.4571 57.5071 37.6783 48.8773 46.4153C37.3526 55.543 28.7971 62.6988 22.9298 81.1361C14.9081 106.343 54.6146 131.523 74.5343 106.14C87.6221 89.4625 78.0628 63.1628 76.096 56.6679C73.3458 47.586 87.7598 22.1003 74.0664 20.2787Z" fill="#FFEBCC"/>
<path d="M57.5779 55.9257C45.399 54.803 13.8219 91.8284 44.1228 105.104C74.4237 118.379 81.2438 58.1075 57.5779 55.9257Z" fill="white"/>
<path d="M55.3767 80.8412C56.7186 76.4663 60.3411 68.3947 64.0957 71.1079C68.7889 74.4994 59.5934 83.5329 55.3767 80.8412Z" fill="#48300B"/>
<path d="M52.8988 92.6669C55.4974 88.9002 61.3849 82.2964 64.1467 86.0154C67.599 90.6641 56.1078 96.5047 52.8988 92.6669Z" fill="#48300B"/>
<path d="M51.1175 83.8718C51.3614 79.3022 50.7346 70.4772 46.2761 71.7343C40.703 73.3057 46.2325 84.9498 51.1175 83.8718Z" fill="#48300B"/>
<path d="M49.379 95.8285C48.2337 91.398 44.9752 83.1727 41.1033 85.7156C36.2633 88.8942 45.0462 98.3292 49.379 95.8285Z" fill="#48300B"/>
</svg>
