<svg width="108" height="116" viewBox="0 0 108 116" fill="none" xmlns="http://www.w3.org/2000/svg">
<path d="M73.7519 22.0205C58.3757 26.6148 60.3013 34.2107 41.1081 38.8925C-27.5809 55.6479 46.9009 117.138 76.5094 99.9166C106.118 82.6953 94.8942 15.7033 73.7519 22.0205Z" fill="#E95C5C"/>
<path d="M24.7776 73.2999C22.6383 74.3985 20.7877 69.5835 19.9065 66.2329C19.8096 65.8647 20.2292 65.6065 20.5155 65.8574C23.2514 68.2546 26.9286 72.1953 24.7776 73.2999Z" fill="#B53737"/>
<path d="M33.6794 72.7423C31.3523 73.3488 30.5943 68.2464 30.4636 64.7842C30.4493 64.4038 30.915 64.2432 31.1398 64.5503C33.2882 67.4856 36.0193 72.1324 33.6794 72.7423Z" fill="#B53737"/>
<path d="M44.3513 65.9459C42.8036 67.7865 39.2345 64.0622 37.1257 61.3133C36.894 61.0113 37.181 60.6109 37.542 60.7315C40.9922 61.8837 45.9076 64.0952 44.3513 65.9459Z" fill="#B53737"/>
<path d="M52.7135 69.5482C50.4149 68.8411 52.4518 64.1019 54.1603 61.0878C54.348 60.7567 54.8286 60.8647 54.8584 61.2442C55.1434 64.8706 55.0247 70.2592 52.7135 69.5482Z" fill="#B53737"/>
<path d="M66.823 57.6712C65.3785 59.5939 61.6107 56.0707 59.3544 53.4415C59.1065 53.1526 59.3711 52.7371 59.7382 52.8377C63.2464 53.7992 68.2756 55.738 66.823 57.6712Z" fill="#B53737"/>
<path d="M74.6891 67.0864C72.2843 67.0887 72.8326 61.9596 73.576 58.5756C73.6576 58.2039 74.1488 58.1653 74.2892 58.5191C75.6312 61.9001 77.1072 67.084 74.6891 67.0864Z" fill="#B53737"/>
<path d="M85.254 63.7373C82.8832 63.3337 84.2895 58.3707 85.5934 55.1608C85.7366 54.8081 86.2272 54.853 86.3059 55.2255C87.0579 58.7844 87.6378 64.1431 85.254 63.7373Z" fill="#B53737"/>
<path d="M65.5122 44.4281C63.9848 46.2857 60.3749 42.6009 58.2359 39.8754C58.0009 39.5759 58.2835 39.1724 58.6458 39.289C62.1085 40.4032 67.048 42.5604 65.5122 44.4281Z" fill="#B53737"/>
<path d="M76.3123 33.8164C75.4352 36.0556 70.8617 33.6697 67.9839 31.7406C67.6677 31.5286 67.8114 31.0574 68.1921 31.0561C71.8296 31.0432 77.1942 31.5648 76.3123 33.8164Z" fill="#B53737"/>
<path d="M57.2397 83.7138C54.8441 83.5037 55.8434 78.443 56.8828 75.138C56.997 74.7749 57.4896 74.7799 57.5982 75.1447C58.6363 78.631 59.6486 83.925 57.2397 83.7138Z" fill="#B53737"/>
<path d="M66.7636 95.4541C64.4121 95.9577 63.8791 90.8269 63.9007 87.3624C63.903 86.9818 64.3753 86.8417 64.5864 87.1584C66.6038 90.1853 69.1281 94.9476 66.7636 95.4541Z" fill="#B53737"/>
<path d="M66.525 74.1481C64.2958 75.0502 62.885 70.0884 62.3081 66.6722C62.2447 66.2969 62.6857 66.0774 62.9483 66.3529C65.4579 68.9861 68.7665 73.241 66.525 74.1481Z" fill="#B53737"/>
<path d="M80.5599 48.7092C78.8007 50.3488 75.7088 46.2197 73.9483 43.2358C73.7549 42.9079 74.0883 42.5452 74.4321 42.7086C77.7174 44.2701 82.3288 47.0605 80.5599 48.7092Z" fill="#B53737"/>
<path d="M83.5219 78.8093C81.2694 79.6517 79.9913 74.6541 79.5057 71.2237C79.4523 70.8468 79.899 70.6392 80.1542 70.9216C82.5928 73.6207 85.7868 77.9623 83.5219 78.8093Z" fill="#B53737"/>
<path d="M75.5206 92.3681C73.6561 90.8493 77.3243 87.2224 80.0399 85.071C80.3383 84.8346 80.7431 85.1153 80.6282 85.4782C79.5299 88.946 77.3955 93.8953 75.5206 92.3681Z" fill="#B53737"/>
<path d="M45.4797 80.0422C43.1786 80.7407 42.2184 75.6725 41.9502 72.2183C41.9207 71.8387 42.3797 71.6597 42.6165 71.9577C44.8799 74.8053 47.7936 79.3398 45.4797 80.0422Z" fill="#B53737"/>
<path d="M71.3721 83.7275C69.0129 83.2613 70.55 78.3373 71.9384 75.163C72.0909 74.8143 72.5801 74.8722 72.6489 75.2465C73.3065 78.8241 73.7443 84.1963 71.3721 83.7275Z" fill="#B53737"/>
<path d="M37.1636 54.4531C34.7908 54.0614 36.1721 49.0914 37.4597 45.875C37.6012 45.5216 38.092 45.564 38.1726 45.9361C38.9425 49.4912 39.5494 54.8468 37.1636 54.4531Z" fill="#B53737"/>
<path d="M51.5465 54.8472C49.5111 56.128 47.2482 51.4924 46.0784 48.2313C45.9499 47.873 46.3454 47.5792 46.6524 47.8042C49.5867 49.954 53.5932 53.5594 51.5465 54.8472Z" fill="#B53737"/>
<path d="M38.3249 84.528C37.2771 86.6926 32.902 83.9598 30.1823 81.8135C29.8834 81.5777 30.0632 81.1191 30.4428 81.1472C34.0704 81.4161 39.3785 82.3515 38.3249 84.528Z" fill="#B53737"/>
<path d="M53.0986 93.047C51.4609 94.808 48.0822 90.91 46.1134 88.0592C45.897 87.746 46.2037 87.3605 46.5582 87.4989C49.9466 88.8221 54.7454 91.2763 53.0986 93.047Z" fill="#B53737"/>
<path d="M25.5374 59.6045C23.254 58.8499 25.3888 54.154 27.1594 51.176C27.3539 50.8488 27.8322 50.9668 27.8541 51.3468C28.0638 54.9783 27.8334 60.3633 25.5374 59.6045Z" fill="#B53737"/>
<path fill-rule="evenodd" clip-rule="evenodd" d="M64.1428 8.12134C62.3822 7.80207 60.5209 8.02672 59.1881 9.13851C58.3433 9.84326 57.7792 10.7953 57.3344 11.9848C56.959 12.9887 56.6918 14.0908 56.398 15.3027C56.3373 15.5528 56.2756 15.8076 56.2115 16.0672C55.4793 19.0321 54.4894 22.4332 51.351 24.9889C49.7671 26.2786 48.2596 27.3384 46.8331 28.1905C46.8125 29.067 46.6848 29.8511 46.5698 30.5574C46.5651 30.5864 46.5604 30.6152 46.5557 30.644C46.4036 31.5799 46.2836 32.3747 46.3591 33.2501C46.433 34.1059 46.7005 35.0883 47.4063 36.3284L45.6628 37.3206C44.8298 35.8567 44.4619 34.5971 44.3606 33.4226C44.2609 32.2676 44.4259 31.2437 44.5757 30.3221L44.5801 30.295C44.6338 29.9647 44.6857 29.6457 44.7281 29.3285C41.1886 31.0346 38.2277 31.3776 35.9299 30.767C32.2241 29.7824 30.5769 26.4006 31.2948 23.2205C31.9317 20.3994 34.5864 18.3187 37.5022 17.9798C40.5304 17.6279 43.7898 19.1285 45.7097 23.2529C46.1688 24.2393 46.4601 25.1315 46.6311 25.9568C47.7163 25.2592 48.8676 24.4242 50.0843 23.4334C52.668 21.3294 53.5391 18.5218 54.264 15.5863C54.3227 15.3484 54.3809 15.1081 54.4393 14.8665C54.7329 13.6536 55.0338 12.41 55.4555 11.2822C55.9693 9.90807 56.695 8.60593 57.9031 7.59811C59.8551 5.96979 62.4023 5.767 64.5007 6.14754C65.5617 6.33995 66.5563 6.68824 67.3746 7.1215C68.1675 7.54127 68.8971 8.09516 69.3039 8.75725L67.5948 9.80738C67.4582 9.58503 67.0888 9.23993 66.436 8.89435C65.8088 8.56226 65.0113 8.27884 64.1428 8.12134ZM44.7785 27.0527C44.6809 26.2151 44.4291 25.2554 43.8911 24.0994C42.3031 20.6881 39.8277 19.729 37.7338 19.9724C35.5273 20.2289 33.6723 21.7986 33.2516 23.6622C32.7531 25.8703 33.8589 28.1412 36.445 28.8283C38.312 29.3244 41.1015 29.0318 44.7785 27.0527Z" fill="#82AA62"/>
<path d="M47.8987 37.1103C45.0425 38.7461 40.2293 44.9973 43.8264 56.916C48.8844 50.3593 52.2516 46.4683 47.8987 37.1103Z" fill="#82AA62"/>
<path d="M45.333 37.9391C47.035 40.7563 53.397 45.422 65.2284 41.5472C58.5553 36.6439 54.5866 33.3686 45.333 37.9391Z" fill="#82AA62"/>
<path d="M44.2807 39.0929C47.4935 39.8083 55.2618 38.4312 60.633 27.1997C52.4779 28.6377 47.3682 29.2447 44.2807 39.0929Z" fill="#82AA62"/>
<path d="M47.9019 37.2958C44.7424 36.3733 36.901 37.2432 30.8119 48.1023C39.0432 47.1968 44.1815 46.9227 47.9019 37.2958Z" fill="#82AA62"/>
<path d="M48.0618 37.4709C46.1438 34.796 39.4352 30.6441 27.9444 35.4358C34.9819 39.8001 39.1955 42.7537 48.0618 37.4709Z" fill="#82AA62"/>
</svg>
